<?xml version="1.0" encoding="UTF-8"?>
<!-- Generator: visioncortex VTracer -->
<svg id="svg" version="1.1" xmlns="http://www.w3.org/2000/svg" style="display: block;" viewBox="0 0 1194 1195"><path d="M0 0 C394.02 0 788.04 0 1194 0 C1194 394.35 1194 788.7 1194 1195 C799.98 1195 405.96 1195 0 1195 C0 800.65 0 406.3 0 0 Z " transform="translate(0,0)" style="fill: #161616;"/><path d="M0 0 C2.74774828 -0.27256139 4.7990648 -0.31560812 7.47363281 0.38989258 C10.41855754 3.0949152 12.10983373 6.32125085 13.97363281 9.82739258 C14.51769775 10.77718994 15.0617627 11.7269873 15.62231445 12.70556641 C16.73391936 14.65099703 17.83042616 16.6051328 18.91162109 18.56762695 C20.75528154 21.89877962 22.68837967 25.16958318 24.63793945 28.43945312 C25.88414331 30.53207195 27.11500139 32.63293611 28.34082031 34.73754883 C30.05342839 37.67505375 31.78455989 40.60039009 33.53613281 43.51489258 C33.9834375 44.26383789 34.43074219 45.0127832 34.89160156 45.78442383 C36.18819439 47.91980017 37.50698565 50.0370304 38.83691406 52.15161133 C39.67418188 53.50185424 40.51142145 54.85211466 41.34863281 56.20239258 C41.75476807 56.83741699 42.16090332 57.47244141 42.5793457 58.12670898 C44.75228217 61.65475491 46.16118953 64.21223816 45.47363281 68.38989258 C44.17710664 70.08534988 42.83297649 71.74437129 41.47363281 73.38989258 C40.51769947 75.05858935 39.59401838 76.74593039 38.69238281 78.44458008 C35.78798766 83.84047768 32.73422233 89.12580047 29.59863281 94.38989258 C28.4501797 96.32477915 27.30174295 98.25967542 26.15332031 100.19458008 C25.55358398 101.20359375 24.95384766 102.21260742 24.3359375 103.25219727 C22.44180155 106.44352334 20.55453315 109.63882183 18.66894531 112.83520508 C11.56010417 124.87682021 4.3818761 136.87124989 -2.89587402 148.81158447 C-9.08522693 158.96975599 -15.17257975 169.18591456 -21.22952271 179.42349243 C-26.84486788 188.91239449 -32.52939771 198.35520638 -38.27636719 207.76489258 C-44.40845128 217.80748884 -50.35734854 227.94290432 -56.20825195 238.15161133 C-61.37474547 247.15964388 -66.68377137 256.07440882 -72.05712891 264.96020508 C-78.60254374 275.78439392 -85.12771831 286.60971617 -91.36230469 297.61645508 C-94.04610072 302.3252739 -96.82312682 306.97891698 -99.58886719 311.63989258 C-104.54794892 319.99990453 -109.43136957 328.40078108 -114.27636719 336.82739258 C-118.14065102 343.54729527 -122.00510405 350.26248773 -126.02636719 356.88989258 C-129.80712479 363.13137097 -133.45263542 369.44575437 -137.0874939 375.77322388 C-139.33107142 379.67543376 -141.58433423 383.57205333 -143.83789062 387.46850586 C-144.86711982 389.24926881 -145.89433967 391.03119761 -146.91796875 392.81518555 C-148.00405172 394.7020246 -149.10481539 396.57899798 -150.21386719 398.45239258 C-150.77460937 399.41274414 -151.33535156 400.3730957 -151.91308594 401.36254883 C-153.52636719 403.38989258 -153.52636719 403.38989258 -155.34423828 404.1706543 C-158.32982396 404.4706158 -159.54675747 403.53675472 -162.05371094 401.92504883 C-162.92205566 401.37606934 -163.79040039 400.82708984 -164.68505859 400.26147461 C-166.06056885 399.365979 -166.06056885 399.365979 -167.46386719 398.45239258 C-169.36613012 397.24263008 -171.26847368 396.03299434 -173.17089844 394.82348633 C-174.09209473 394.23164551 -175.01329102 393.63980469 -175.96240234 393.0300293 C-179.16632449 390.98051978 -182.40324709 388.99354234 -185.65136719 387.01489258 C-189.33531729 384.76181005 -192.98538218 382.4612274 -196.62402344 380.13598633 C-202.65165921 376.2937497 -208.74188769 372.55823499 -214.83886719 368.82739258 C-223.46200802 363.53542699 -232.05363837 358.19800872 -240.58886719 352.76489258 C-241.4613208 352.20987061 -242.33377441 351.65484863 -243.23266602 351.08300781 C-248.70915622 347.5852165 -254.13312617 344.01465791 -259.52636719 340.38989258 C-253.96052209 328.38433781 -248.09627609 316.59883777 -241.86962891 304.92358398 C-239.97885763 301.35716735 -238.12161471 297.77364157 -236.26245117 294.19067383 C-231.47283712 284.96238509 -226.59978036 275.78399867 -221.65136719 266.63989258 C-215.5515115 255.36394118 -209.62556243 244.00415989 -203.74511719 232.61254883 C-201.11725395 227.52297804 -198.45757201 222.45150384 -195.77636719 217.38989258 C-190.54008891 207.49180368 -185.44310787 197.52196956 -180.33050537 187.55966187 C-175.56243919 178.26971415 -170.79195957 168.98251621 -165.87011719 159.77270508 C-161.94140775 152.38734043 -158.25278923 144.87864438 -154.52636719 137.38989258 C-159.72791113 137.75959171 -164.92941706 138.12982058 -170.13088989 138.5005188 C-172.02401203 138.63541989 -173.9171395 138.7702462 -175.81027222 138.90499878 C-186.30258814 139.65214201 -196.79434525 140.40548231 -207.28417969 141.18676758 C-210.71905931 141.44219449 -214.15395357 141.69742322 -217.58886719 141.95239258 C-218.43092712 142.01494232 -219.27298706 142.07749207 -220.14056396 142.14193726 C-233.4794132 143.12935357 -246.82237542 143.99876388 -260.17700195 144.74365234 C-267.50722707 145.14047117 -267.50722707 145.14047117 -274.80371094 145.91333008 C-280.22382156 146.60719524 -285.6481154 146.77214591 -291.10449219 146.99536133 C-291.94496094 147.03274414 -292.78542969 147.07012695 -293.65136719 147.10864258 C-294.39644531 147.13893555 -295.14152344 147.16922852 -295.90917969 147.20043945 C-297.97021275 147.34963364 -300.02468176 147.58957159 -302.07299805 147.86254883 C-307.58132783 148.57236901 -313.1118015 148.81872392 -318.65527344 149.10864258 C-320.37797707 149.20284485 -320.37797707 149.20284485 -322.13548279 149.2989502 C-327.02132937 149.56610488 -331.90751245 149.82683509 -336.79370117 150.08764648 C-340.37269941 150.279638 -343.95148522 150.47528123 -347.53027344 150.67114258 C-348.62835831 150.72846558 -349.72644318 150.78578857 -350.85780334 150.84484863 C-356.14049016 151.13461941 -361.29004606 151.61054771 -366.52636719 152.38989258 C-369.28766385 152.58539462 -372.03976837 152.7549773 -374.80371094 152.88989258 C-375.57389053 152.93049805 -376.34407013 152.97110352 -377.1375885 153.01293945 C-379.57953787 153.14156156 -382.02166349 153.2662 -384.46386719 153.38989258 C-387.68149941 153.55321445 -390.89889437 153.72047941 -394.11621094 153.88989258 C-394.84041733 153.9253418 -395.56462372 153.96079102 -396.31077576 153.99731445 C-399.80818915 154.18151508 -403.25947396 154.455914 -406.73291016 154.91015625 C-409.74410358 155.29096427 -412.60499702 155.52345299 -415.63183594 155.56567383 C-432.19693179 155.93131547 -448.59157408 157.25651558 -465.07983398 158.84228516 C-481.53882301 160.40805659 -498.02364719 161.42582514 -514.52636719 162.38989258 C-515.24716587 162.43213581 -515.96796455 162.47437904 -516.71060562 162.51790237 C-524.86314372 162.99568292 -533.01598266 163.46824512 -541.16894531 163.9387207 C-541.90072904 163.98095544 -542.63251276 164.02319017 -543.38647175 164.06670475 C-547.15869882 164.28419286 -550.93098608 164.50056593 -554.70336914 164.71533203 C-558.45569051 164.92905966 -562.20783594 165.1456717 -565.95988274 165.36416435 C-567.36353367 165.44536342 -568.76724612 165.52550707 -570.17102242 165.60450935 C-572.11327561 165.71391294 -574.05530107 165.82733688 -575.99731445 165.94091797 C-577.64123924 166.03512779 -577.64123924 166.03512779 -579.31837463 166.13124084 C-582.74916678 166.4078563 -586.12156739 166.89093279 -589.52636719 167.38989258 C-591.86706293 167.52892253 -594.21002381 167.63338412 -596.55371094 167.70629883 C-598.4824707 167.76914062 -598.4824707 167.76914062 -600.45019531 167.83325195 C-601.78808344 167.87304958 -603.1259741 167.91276209 -604.46386719 167.95239258 C-605.8291128 167.99565912 -607.19434737 168.03927579 -608.55957031 168.08325195 C-611.88174371 168.18890411 -615.20398665 168.29100653 -618.52636719 168.38989258 C-619.31205638 159.53414724 -619.71389897 150.71166225 -619.91479492 141.824646 C-620.20472916 129.2857116 -620.73332746 116.78174212 -621.52636719 104.26489258 C-622.92776913 81.99588558 -623.74686851 59.70667759 -623.52636719 37.38989258 C-622.69838623 37.33978027 -621.87040527 37.28966797 -621.01733398 37.23803711 C-617.79068221 37.04186238 -614.56413912 36.84403306 -611.33764648 36.64526367 C-609.31664098 36.52120149 -607.29553005 36.39886029 -605.27441406 36.27661133 C-598.66799339 35.87102181 -592.0654408 35.43725463 -585.46606445 34.92822266 C-567.03168858 33.50665945 -548.59227722 32.52330612 -530.12524414 31.63720703 C-526.30175241 31.45256924 -522.47851497 31.26322313 -518.65527344 31.07348633 C-516.91027306 30.99220741 -516.91027306 30.99220741 -515.13002014 30.9092865 C-514.05626633 30.85575516 -512.98251251 30.80222382 -511.8762207 30.74707031 C-510.93617691 30.70202866 -509.99613312 30.656987 -509.02760315 30.61058044 C-506.74289284 30.40899697 -504.73928377 29.95965598 -502.52636719 29.38989258 C-501.17438814 29.26447562 -499.81839808 29.17804168 -498.46166992 29.12451172 C-497.66707367 29.09091553 -496.87247742 29.05731934 -496.05380249 29.02270508 C-495.19783478 28.99047852 -494.34186707 28.95825195 -493.45996094 28.92504883 C-491.60912796 28.84772553 -489.758298 28.77033007 -487.9074707 28.69287109 C-486.45378586 28.63427414 -486.45378586 28.63427414 -484.97073364 28.57449341 C-465.26430257 27.78216602 -465.26430257 27.78216602 -445.58886719 26.45239258 C-432.28911995 25.375855 -418.9731138 24.63539234 -405.65136719 23.88989258 C-404.48785736 23.82472443 -403.32434753 23.75955627 -402.12557983 23.69241333 C-387.32171807 22.86525225 -372.51659462 22.06225951 -357.71066284 21.27313232 C-343.48913265 20.5137769 -329.27276587 19.67326851 -315.05618286 18.8269043 C-301.01920732 17.99235624 -286.98089195 17.18670379 -272.94042969 16.41333008 C-272.1827788 16.37157591 -271.42512791 16.32982174 -270.6445179 16.28680229 C-263.64932042 15.90140636 -256.65407677 15.51685271 -249.65878296 15.13320923 C-230.44161976 14.07851947 -211.23202293 12.95208851 -192.02636719 11.70239258 C-177.92361219 10.78483849 -163.84972222 10.08971602 -149.72167969 9.73071289 C-129.26528439 9.18928314 -108.86454316 7.63942315 -88.47949219 5.89379883 C-70.97962759 4.40239943 -53.52644202 3.27830335 -35.97064209 2.83837891 C-26.88920532 2.60626899 -17.90703719 2.1550933 -8.88769531 1.05004883 C-7.48906534 0.88113835 -6.08817166 0.72982695 -4.68554688 0.59814453 C-3.1182959 0.44698385 -1.55610157 0.24015213 0 0 Z " transform="translate(906.5263671875,268.610107421875)" style="fill: #FCFCFC;"/><path d="M0 0 C1.52152079 0.11633358 3.04220723 0.2435887 4.5625 0.375 C5.40941406 0.44460938 6.25632812 0.51421875 7.12890625 0.5859375 C10 1 10 1 13.17797852 1.94970703 C17.10869331 3.02986896 20.99280128 3.68549201 25.0234375 4.21875 C25.76904938 4.32215698 26.51466125 4.42556396 27.28286743 4.53210449 C29.64628616 4.85949967 32.01051767 5.18038388 34.375 5.5 C52.45642683 7.95518142 52.45642683 7.95518142 58.98046875 9.52636719 C63.05652655 10.48230918 67.18880126 11.15902194 71.3125 11.875 C72.29162354 12.04572021 73.27074707 12.21644043 74.27954102 12.39233398 C83.50178648 13.96968086 92.7573798 15.27287474 102.02368164 16.56103516 C110.7409857 17.78500883 119.37620601 19.23239005 128 21 C127.85691406 22.12921875 127.71382812 23.2584375 127.56640625 24.421875 C127.19658017 27.3676201 126.85248532 30.31464817 126.52734375 33.265625 C124.63707685 49.61769386 121.57495827 65.74054955 118.5874939 81.91921997 C118.41166779 82.87142426 118.23584167 83.82362854 118.0546875 84.8046875 C117.79131088 86.23021439 117.79131088 86.23021439 117.52261353 87.68453979 C115.88551127 96.57004423 114.3298942 105.46835359 112.8125 114.375 C112.6899585 115.09287689 112.56741699 115.81075378 112.44116211 116.55038452 C111.21826878 123.72152892 110.01338072 130.89545043 108.8359375 138.07421875 C105.84396129 156.29691245 102.60609382 174.46917146 99.29760742 192.63696289 C97.24691967 203.92142372 95.28268616 215.21486803 93.41859436 226.53167725 C91.92080858 235.58053219 90.2373517 244.58589139 88.49462891 253.59033203 C86.96046688 261.54008072 85.58075992 269.47217644 84.53173828 277.50146484 C83.98705621 281.0851628 83.2951891 284.61377338 82.57086182 288.16455078 C81.46502391 293.65720616 80.4546754 299.16829317 79.42578125 304.67578125 C79.17642987 306.00775831 78.92701315 307.33972313 78.67753601 308.67167664 C78.02048979 312.18033359 77.36411202 315.68911521 76.70794678 319.19793701 C75.55216941 325.37819735 74.39555718 331.55830136 73.23828125 337.73828125 C73.10820679 338.43293362 72.97813232 339.12758598 72.84411621 339.84328842 C70.32160511 353.3112914 67.77638876 366.77495632 65.22668552 380.23783398 C65.08025577 381.01101624 64.93382601 381.78419851 64.78295898 382.58081055 C64.5627743 383.74340503 64.5627743 383.74340503 64.33814144 384.92948627 C62.84692108 392.80508648 61.36113578 400.68170955 59.87555122 408.5583744 C58.98726496 413.26713404 58.09806139 417.97572054 57.20886326 422.68430805 C56.46326262 426.63283407 55.71817424 430.5814555 54.97412109 434.53027344 C49.23133433 465.00412569 49.23133433 465.00412569 46.2421875 480.0234375 C46.05316864 480.97716248 45.86414978 481.93088745 45.66940308 482.91351318 C41.08218046 505.75345863 41.08218046 505.75345863 38 515 C32.56719951 515.24177384 27.97531791 514.38857551 22.75 512.875 C14.8004414 510.67357158 6.81148026 508.80733235 -1.25 507.0625 C-9.82339521 505.19715124 -18.33479414 503.19894801 -26.8125 500.9375 C-34.83537185 498.79774756 -42.87510611 496.84754225 -50.98022461 495.04589844 C-59.97173776 493.03549325 -68.92299467 490.86573914 -77.875 488.6875 C-78.62738953 488.50447327 -79.37977905 488.32144653 -80.15496826 488.13287354 C-84.4371696 487.09072466 -88.71881388 486.04631284 -93 485 C-92.46608721 477.95386849 -91.31833437 471.24532353 -89.6875 464.375 C-89.38682617 463.06982422 -89.38682617 463.06982422 -89.08007812 461.73828125 C-88.13482733 457.67048373 -87.15928824 453.61448504 -86.11132812 449.57177734 C-82.97693161 437.43148704 -80.54614136 425.17464184 -78.125 412.875 C-77.67968513 410.62882601 -77.23396207 408.38273291 -76.7878418 406.13671875 C-75.9134138 401.73182888 -75.04086984 397.3265742 -74.17041016 392.92089844 C-72.72629306 385.61222339 -71.2722919 378.30556029 -69.8125 371 C-69.47182495 369.29215332 -69.47182495 369.29215332 -69.12426758 367.54980469 C-67.83264447 361.09398496 -66.51884707 354.64303401 -65.1875 348.1953125 C-65.03157883 347.4399823 -64.87565765 346.6846521 -64.7150116 345.90643311 C-63.96148172 342.25868504 -63.20581602 338.61139865 -62.4465332 334.96484375 C-60.67444744 326.43188872 -59.01138739 317.88274222 -57.427948 309.31262207 C-56.59527948 304.81289875 -55.75396283 300.31478426 -54.9140625 295.81640625 C-54.73032074 294.83204086 -54.54657898 293.84767548 -54.35726929 292.83348083 C-47.90152232 258.25925722 -47.90152232 258.25925722 -45.4375 246.1875 C-43.20330601 235.23233286 -41.16182237 224.24319493 -39.125 213.25 C-38.95464233 212.3307373 -38.78428467 211.41147461 -38.60876465 210.46435547 C-37.919093 206.74238018 -37.22951536 203.02038749 -36.54006958 199.29837036 C-34.91802666 190.54680508 -33.28258689 181.79780623 -31.63299561 173.0513916 C-31.3415129 171.5047242 -31.0506748 169.95793514 -30.76055908 168.41101074 C-29.38865137 161.09780704 -27.97578229 153.80131305 -26.38671875 146.53125 C-25.25148536 141.3062036 -24.33873825 136.10921985 -23.625 130.8125 C-22.42742679 122.42033304 -20.97949742 114.08547181 -19.4375 105.75 C-19.22754395 104.60764893 -19.01758789 103.46529785 -18.80126953 102.28833008 C-17.97446619 97.86574918 -17.1359311 93.47786723 -16.00927734 89.12133789 C-14.99911834 85.14018716 -14.29263376 81.13184673 -13.66796875 77.07421875 C-13.426718 75.5518326 -13.18542397 74.02945332 -12.9440918 72.50708008 C-12.75887466 71.32609238 -12.75887466 71.32609238 -12.56991577 70.12124634 C-10.58547312 57.49198156 -8.51263676 44.88382603 -6.1875 32.3125 C-5.87752075 30.62290161 -5.87752075 30.62290161 -5.5612793 28.89916992 C-4.12883781 21.25767561 -4.12883781 21.25767561 -3 19 C-2.6324586 16.73445184 -2.30489811 14.46232577 -2 12.1875 C-1.44760672 8.09202173 -0.86237945 4.04240367 0 0 Z " transform="translate(492,485)" style="fill: #FBFBFB;"/></svg>